# xmcd CD database file
#
# Track frame offsets:
#	150
#	18957
#	32949
#	50520
#	61998
#	78030
#	94323
#	106968
#	123711
#	139338
#	156471
#	178584
#	197115
#	216015
#	253755
#	263484
#	276225
#
# Disc length: 3989 seconds
#
# Revision: 0
# Processed by: cddbd v1.5.2PL0 Copyright (c) Steve Scherf et al.
# Submitted via: CDex 2.15
#
DISCID=f80f9311
DTITLE=Music from EMI - BEST OF JAZZ
DYEAR=2005
DGENRE=Jazz
TTITLE0=CHARLIE HUNTER feat NORAH JONES - More than this
TTITLE1=DUKE ELLINGTON and LOUIS ARMSTRONG - I m just a lucky so and so
TTITLE2=BOBBY MC FERRIN - Don t worry be happy
TTITLE3=JULIE LONDON -  Fly me to the moon[in other words]
TTITLE4=CANNONBALL ADDERLEY - Sambop
TTITLE5=NINA SIMONE - My baby just cares for me
TTITLE6=DINAH WASHINGTON - Mad about the boy
TTITLE7=US3 - CANTALOOP [flip fantasia]
TTITLE8=SARAH VAUGHAN - Round midnight
TTITLE9=LOU RAWLS - Girl from ipanema
TTITLE10=BUDDY RICH - The beat goes on
TTITLE11=CASSANDRA WILSON - Time after time
TTITLE12=EARL KLUGH - I heard it through the grapevine
TTITLE13=MARLENA - Woman of the ghetto
TTITLE14=PEGGY LEE - I m a woman
TTITLE15=NATHALIE COLE - This will be everlasting love[1991 Remix]
TTITLE16=MINNIE RIPPERTON feat JOSE FELICIANO - Light my fire
EXTD=YEAR: 2005
EXTT0=
EXTT1=
EXTT2=
EXTT3=
EXTT4=
EXTT5=
EXTT6=
EXTT7=
EXTT8=
EXTT9=
EXTT10=
EXTT11=
EXTT12=
EXTT13=
EXTT14=
EXTT15=
EXTT16=
PLAYORDER=
